<svg preserveAspectRatio="none" overflow="visible" style="display: block;" width="16" height="16" viewBox="0 0 16 16" fill="none" xmlns="http://www.w3.org/2000/svg">
<g id="Size16(Gray)Icon/Star">
<path id="Icon/Satisfaction" d="M8.54176 1.64691C8.4371 1.44375 8.22778 1.31447 8 1.31447C7.77221 1.31447 7.5629 1.44375 7.45824 1.64691L5.58671 5.31609L1.51737 5.96251C1.28958 5.99945 1.10489 6.15951 1.03102 6.37498C0.95714 6.59661 1.0187 6.83056 1.17877 6.99678L4.09072 9.90873L3.45046 13.9781C3.41352 14.2059 3.51202 14.4336 3.69671 14.5691C3.8814 14.7045 4.12766 14.723 4.33082 14.6183L8.00616 12.753L11.6753 14.6183C11.8785 14.723 12.1248 14.7045 12.3094 14.5691C12.4941 14.4336 12.5865 14.2059 12.5557 13.9781L11.9093 9.90873L14.8212 6.99678C14.9813 6.83671 15.0429 6.59661 14.969 6.37498C14.8951 6.15336 14.7104 5.99329 14.4826 5.96251L10.4194 5.31609L8.54791 1.64691H8.54176Z" fill="#4B4B4A"/>
</g>
</svg>
