<svg preserveAspectRatio="none" overflow="visible" style="display: block;" width="16" height="16" viewBox="0 0 16 16" fill="none" xmlns="http://www.w3.org/2000/svg">
<g id="Settings Icon">
<path id="Icon/Settings" d="M6.42837 1.65565C6.5055 1.2764 6.83975 1 7.23186 1H8.76814C9.16024 1 9.49449 1.2764 9.57163 1.65565L9.94444 3.45547C10.3044 3.60974 10.6451 3.80901 10.9536 4.04041L12.6956 3.46189C13.0684 3.33976 13.4734 3.49403 13.6662 3.83471L14.4376 5.1653C14.6304 5.50598 14.5661 5.93021 14.2704 6.19376L12.9013 7.41507C12.927 7.6079 12.9334 7.80073 12.9334 8C12.9334 8.19927 12.9206 8.39211 12.9013 8.58494L14.2769 9.80625C14.5725 10.0634 14.6368 10.494 14.444 10.8347L13.6726 12.1653C13.4798 12.4995 13.0684 12.6602 12.702 12.5381L10.9601 11.9596C10.6515 12.191 10.3108 12.3903 9.95087 12.5445L9.57804 14.3444C9.50091 14.73 9.16023 15 8.77455 15H7.23829C6.84619 15 6.51194 14.7236 6.4348 14.3444L6.06199 12.5445C5.70203 12.3903 5.36134 12.191 5.0528 11.9596L3.29797 12.5381C2.92516 12.6602 2.52019 12.506 2.32735 12.1653L1.55601 10.8347C1.36318 10.494 1.42746 10.0698 1.72315 9.80625L3.09871 8.58494C3.073 8.39211 3.06658 8.19927 3.06658 8C3.06658 7.80073 3.07943 7.6079 3.09871 7.41507L1.72315 6.19376C1.42746 5.93664 1.36318 5.50598 1.55601 5.1653L2.32735 3.83471C2.52019 3.49403 2.93158 3.33976 3.29797 3.46189L5.03993 4.04041C5.34847 3.80901 5.68916 3.60974 6.04912 3.45547L6.42195 1.65565H6.42837ZM8.00321 10.0569C9.14095 10.0569 10.0601 9.13132 10.0537 7.99358C10.0537 6.85583 9.12811 5.93664 7.99036 5.94307C6.85262 5.94307 5.93343 6.86869 5.93986 8.00643C5.93986 9.14418 6.86547 10.0634 8.00321 10.0569Z" fill="white"/>
</g>
</svg>
